<?xml version="1.0" encoding="UTF-8"?>
<svg width="32" height="32" viewBox="0 0 32 32" fill="none" xmlns="http://www.w3.org/2000/svg">
  <!-- Roda -->
  <circle cx="16" cy="16" r="12" stroke="black" stroke-width="2"/>
  <circle cx="16" cy="16" r="4" fill="black"/>
  
  <!-- Chamas -->
  <path d="M16 4C16 4 20 8 20 12C20 16 16 20 16 20C16 20 12 16 12 12C12 8 16 4 16 4Z" fill="#FF6C00"/>
  <path d="M16 4C16 4 20 8 20 12C20 16 16 20 16 20C16 20 12 16 12 12C12 8 16 4 16 4Z" fill="black" fill-opacity="0.3"/>
</svg> 